<svg width="152.723" height="140.916" viewBox="0 0 40.408 37.284" xmlns="http://www.w3.org/2000/svg"><g fill="#212121"><path d="M9.541 11.572H6.805V6.805H2.75v4.767H0V.157H2.75v4.532h4.054V.157H9.54zM18.361 6.734h-4.328v2.72h5.112v2.117h-7.864V.156h7.88v2.125h-5.128v2.407h4.328zM24.508 7.542h-1.49v4.03h-2.751V.157h4.492q2.03 0 3.175.901 1.145.902 1.145 2.548 0 1.192-.486 1.976-.479.784-1.506 1.27l2.384 4.602v.118h-2.948zm-1.49-2.125h1.74q.785 0 1.177-.407.4-.416.4-1.153 0-.737-.4-1.152-.4-.424-1.176-.424h-1.74zM40.407 6.099q0 1.67-.62 2.956t-1.763 1.983q-1.137.69-2.595.69t-2.588-.666q-1.129-.675-1.764-1.921-.627-1.247-.658-2.862v-.643q0-1.677.611-2.955.62-1.286 1.764-1.984Q33.947 0 35.413 0q1.45 0 2.587.69 1.137.69 1.764 1.968.635 1.27.643 2.917zm-2.799-.478q0-1.702-.572-2.58-.565-.886-1.623-.886-2.07 0-2.188 3.105l-.007.839q0 1.678.556 2.58.557.901 1.655.901 1.042 0 1.607-.886.564-.886.572-2.548zM8.533 27.219l1.17-6.402h2.44l-2.166 10.21H7.425l-1.367-5.82-1.34 5.82H2.174L0 20.816h2.447l1.17 6.402 1.403-6.402h2.09zM21.749 26.133q0 1.494-.554 2.643-.554 1.15-1.578 1.774-1.016.617-2.32.617t-2.314-.596q-1.01-.603-1.578-1.717-.56-1.115-.589-2.56v-.575q0-1.5.547-2.643.554-1.15 1.578-1.774 1.03-.624 2.342-.624 1.297 0 2.314.617 1.016.617 1.577 1.76.568 1.136.575 2.608zm-2.503-.428q0-1.521-.512-2.307-.505-.792-1.451-.792-1.851 0-1.957 2.777l-.006.75q0 1.5.497 2.307.498.806 1.48.806.932 0 1.437-.792t.512-2.279zM26.812 27.423H25.48v3.604h-2.461v-10.21h4.017q1.816 0 2.84.807t1.024 2.279q0 1.066-.435 1.767-.428.701-1.346 1.136l2.131 4.116v.105h-2.636zm-1.332-1.9h1.556q.702 0 1.052-.365.358-.371.358-1.03 0-.66-.358-1.031-.357-.379-1.052-.379H25.48zM32.386 31.027V20.818h3.288q1.354 0 2.433.617 1.08.61 1.683 1.732.61 1.115.617 2.503v.47q0 1.402-.596 2.517-.589 1.108-1.669 1.739-1.072.624-2.398.63zm2.461-8.309v6.416h.856q1.058 0 1.626-.75.568-.758.568-2.244v-.442q0-1.48-.568-2.23t-1.654-.75zM4.243 36.589q-.282.313-.824.504-.543.192-1.19.192-.995 0-1.59-.609t-.636-1.694l-.004-.438q0-.748.265-1.305.264-.56.754-.86.494-.302 1.141-.302.947 0 1.468.435.526.431.613 1.29H3.064q-.063-.424-.271-.605-.21-.18-.592-.18-.459 0-.71.39-.25.389-.253 1.112v.306q0 .759.257 1.141.26.38.817.38.477 0 .71-.213v-.786h-.849v-.838h2.07zM8.094 35.068h-1.92v1.207h2.268v.94h-3.49v-5.066H8.45v.943H6.174v1.068h1.92zM13.17 37.215h-1.214l-1.795-3.152v3.152H8.94V32.15h1.221l1.791 3.152V32.15h1.218zM17.083 35.068h-1.92v1.207h2.268v.94h-3.49v-5.066h3.497v.943h-2.275v1.068h1.92zM19.81 35.427h-.66v1.788h-1.222V32.15h1.993q.901 0 1.41.4.507.4.507 1.13 0 .53-.216.877-.212.348-.668.564l1.058 2.042v.052h-1.308zm-.66-.943h.771q.348 0 .522-.18.178-.185.178-.512t-.178-.511q-.177-.188-.522-.188h-.772zM25.453 36.269H23.78l-.292.946h-1.305l1.858-5.065h1.148l1.871 5.065H25.75zm-1.381-.943h1.089l-.546-1.756zM30.987 33.093h-1.52v4.122h-1.221v-4.122h-1.492v-.943h4.233zM35.694 34.787q0 .741-.275 1.311t-.783.88q-.504.307-1.15.307-.648 0-1.149-.296-.5-.3-.782-.852-.279-.553-.293-1.27v-.285q0-.745.272-1.312.274-.57.782-.88.512-.31 1.162-.31.644 0 1.148.307.505.306.783.873.282.563.285 1.294zm-1.242-.212q0-.755-.254-1.145-.25-.393-.72-.393-.918 0-.97 1.378l-.004.372q0 .744.247 1.144.247.4.734.4.463 0 .713-.393.25-.393.254-1.13zM38.205 35.427h-.66v1.788h-1.222V32.15h1.993q.901 0 1.41.4.507.4.507 1.13 0 .53-.216.877-.212.348-.668.564l1.058 2.042v.052h-1.308zm-.66-.943h.771q.348 0 .522-.18.178-.185.178-.512t-.178-.511q-.177-.188-.522-.188h-.772zM2.578 17.223h-.905v2.45H0v-6.94h2.73q1.235 0 1.93.549t.696 1.549q0 .724-.295 1.2-.29.477-.915.773L5.595 19.6v.071H3.803zm-.905-1.291H2.73q.476 0 .714-.248.243-.253.243-.7 0-.449-.243-.701-.243-.258-.714-.258H1.673zM10.308 18.376H8.016l-.4 1.296H5.827l2.545-6.939h1.573l2.564 6.94h-1.797zm-1.892-1.292h1.492l-.749-2.406zM18.809 19.673h-1.663l-2.46-4.318v4.318h-1.672v-6.939h1.673l2.454 4.318v-4.318h1.668zM19.867 19.673v-6.939h2.235q.92 0 1.654.42.734.414 1.143 1.177.415.757.42 1.701v.32q0 .952-.405 1.71-.4.753-1.134 1.182-.73.424-1.63.43zm1.673-5.647v4.36h.581q.72 0 1.106-.51.386-.514.386-1.525v-.3q0-1.005-.386-1.515t-1.125-.51zM32.053 16.346q0 1.015-.376 1.797-.377.781-1.073 1.205-.69.42-1.577.42t-1.573-.405q-.686-.41-1.072-1.168-.381-.758-.4-1.74v-.39q0-1.02.371-1.797.377-.781 1.073-1.206.7-.424 1.591-.424.882 0 1.573.42.69.419 1.072 1.196.386.772.391 1.773zm-1.701-.29q0-1.035-.348-1.569-.343-.538-.987-.538-1.258 0-1.33 1.887l-.004.51q0 1.02.338 1.568t1.006.548q.634 0 .977-.539.343-.538.348-1.548zM35.113 12.734l1.549 4.828 1.544-4.828h2.202v6.939H38.73v-1.62l.162-3.318-1.677 4.938h-1.106l-1.682-4.942.162 3.321v1.62h-1.673v-6.938z" style="font-feature-settings:normal;font-variant-alternates:normal;font-variant-caps:normal;font-variant-ligatures:normal;font-variant-numeric:normal;font-variant-position:normal;shape-padding:0;text-decoration-color:#000;text-decoration-line:none;text-decoration-style:solid;text-indent:0;text-orientation:mixed;text-transform:none;white-space:pre"/></g></svg>